<svg width="176" height="38" viewBox="0 0 176 38" fill="none" xmlns="http://www.w3.org/2000/svg">
<path d="M61.5078 13.5781H64.8984C66.4714 13.5781 67.6068 13.8073 68.3047 14.2656C69.0078 14.724 69.3594 15.4479 69.3594 16.4375C69.3594 17.1042 69.1875 17.6589 68.8438 18.1016C68.5 18.5443 68.0052 18.8229 67.3594 18.9375V19.0156C68.1615 19.1667 68.75 19.4661 69.125 19.9141C69.5052 20.3568 69.6953 20.9583 69.6953 21.7188C69.6953 22.7448 69.3359 23.5495 68.6172 24.1328C67.9036 24.7109 66.9089 25 65.6328 25H61.5078V13.5781ZM63.375 18.2969H65.1719C65.9531 18.2969 66.5234 18.1745 66.8828 17.9297C67.2422 17.6797 67.4219 17.2578 67.4219 16.6641C67.4219 16.1276 67.2266 15.7396 66.8359 15.5C66.4505 15.2604 65.8359 15.1406 64.9922 15.1406H63.375V18.2969ZM63.375 19.8125V23.4297H65.3594C66.1406 23.4297 66.7292 23.2812 67.125 22.9844C67.526 22.6823 67.7266 22.2083 67.7266 21.5625C67.7266 20.9688 67.5234 20.5286 67.1172 20.2422C66.7109 19.9557 66.0938 19.8125 65.2656 19.8125H63.375ZM73.7109 25H71.875V12.8438H73.7109V25ZM84.0078 20.6641C84.0078 22.0755 83.6458 23.1771 82.9219 23.9688C82.1979 24.7604 81.1901 25.1562 79.8984 25.1562C79.0911 25.1562 78.3776 24.974 77.7578 24.6094C77.138 24.2448 76.6615 23.7214 76.3281 23.0391C75.9948 22.3568 75.8281 21.5651 75.8281 20.6641C75.8281 19.263 76.1875 18.1693 76.9062 17.3828C77.625 16.5964 78.638 16.2031 79.9453 16.2031C81.1953 16.2031 82.1849 16.6068 82.9141 17.4141C83.6432 18.2161 84.0078 19.2995 84.0078 20.6641ZM77.7188 20.6641C77.7188 22.6589 78.4557 23.6562 79.9297 23.6562C81.388 23.6562 82.1172 22.6589 82.1172 20.6641C82.1172 18.6901 81.3828 17.7031 79.9141 17.7031C79.1432 17.7031 78.5833 17.9583 78.2344 18.4688C77.8906 18.9792 77.7188 19.7109 77.7188 20.6641ZM89.6094 25.1562C88.3021 25.1562 87.3073 24.776 86.625 24.0156C85.9479 23.25 85.6094 22.1536 85.6094 20.7266C85.6094 19.2734 85.9635 18.1562 86.6719 17.375C87.3854 16.5938 88.4141 16.2031 89.7578 16.2031C90.6693 16.2031 91.4896 16.3724 92.2188 16.7109L91.6641 18.1875C90.888 17.8854 90.2474 17.7344 89.7422 17.7344C88.2474 17.7344 87.5 18.7266 87.5 20.7109C87.5 21.6797 87.6849 22.4089 88.0547 22.8984C88.4297 23.3828 88.9766 23.625 89.6953 23.625C90.513 23.625 91.2865 23.4219 92.0156 23.0156V24.6172C91.6875 24.8099 91.3359 24.9479 90.9609 25.0312C90.5911 25.1146 90.1406 25.1562 89.6094 25.1562ZM95.8203 20.4375L96.8594 19.1406L99.4688 16.3594H101.586L98.1094 20.0703L101.805 25H99.6484L96.875 21.2109L95.8672 22.0391V25H94.0469V12.8438H95.8672V18.7734L95.7734 20.4375H95.8203ZM116.508 13.5781V20.9688C116.508 21.8125 116.326 22.5521 115.961 23.1875C115.602 23.8177 115.078 24.3047 114.391 24.6484C113.708 24.987 112.891 25.1562 111.938 25.1562C110.521 25.1562 109.419 24.7812 108.633 24.0312C107.846 23.2812 107.453 22.25 107.453 20.9375V13.5781H109.328V20.8047C109.328 21.7474 109.547 22.4427 109.984 22.8906C110.422 23.3385 111.094 23.5625 112 23.5625C113.76 23.5625 114.641 22.638 114.641 20.7891V13.5781H116.508ZM125.039 22.5391C125.039 23.3828 124.732 24.0312 124.117 24.4844C123.503 24.9323 122.622 25.1562 121.477 25.1562C120.326 25.1562 119.401 24.9818 118.703 24.6328V23.0469C119.719 23.5156 120.664 23.75 121.539 23.75C122.669 23.75 123.234 23.4089 123.234 22.7266C123.234 22.5078 123.172 22.3255 123.047 22.1797C122.922 22.0339 122.716 21.8828 122.43 21.7266C122.143 21.5703 121.745 21.3932 121.234 21.1953C120.24 20.8099 119.565 20.4245 119.211 20.0391C118.862 19.6536 118.688 19.1536 118.688 18.5391C118.688 17.7995 118.984 17.2266 119.578 16.8203C120.177 16.4089 120.99 16.2031 122.016 16.2031C123.031 16.2031 123.992 16.4089 124.898 16.8203L124.305 18.2031C123.372 17.8177 122.589 17.625 121.953 17.625C120.984 17.625 120.5 17.901 120.5 18.4531C120.5 18.724 120.625 18.9531 120.875 19.1406C121.13 19.3281 121.682 19.5859 122.531 19.9141C123.245 20.1901 123.763 20.4427 124.086 20.6719C124.409 20.901 124.648 21.1667 124.805 21.4688C124.961 21.7656 125.039 22.1224 125.039 22.5391ZM130.805 25.1562C129.461 25.1562 128.409 24.7656 127.648 23.9844C126.893 23.1979 126.516 22.1172 126.516 20.7422C126.516 19.3307 126.867 18.2214 127.57 17.4141C128.273 16.6068 129.24 16.2031 130.469 16.2031C131.609 16.2031 132.51 16.5495 133.172 17.2422C133.833 17.9349 134.164 18.888 134.164 20.1016V21.0938H128.406C128.432 21.9323 128.659 22.5781 129.086 23.0312C129.513 23.4792 130.115 23.7031 130.891 23.7031C131.401 23.7031 131.875 23.6562 132.312 23.5625C132.755 23.4635 133.229 23.3021 133.734 23.0781V24.5703C133.286 24.7839 132.833 24.9349 132.375 25.0234C131.917 25.112 131.393 25.1562 130.805 25.1562ZM130.469 17.5938C129.885 17.5938 129.417 17.7786 129.062 18.1484C128.714 18.5182 128.505 19.0573 128.438 19.7656H132.359C132.349 19.0521 132.177 18.513 131.844 18.1484C131.51 17.7786 131.052 17.5938 130.469 17.5938ZM140.633 16.2031C141.003 16.2031 141.307 16.2292 141.547 16.2812L141.367 17.9922C141.107 17.9297 140.836 17.8984 140.555 17.8984C139.82 17.8984 139.224 18.138 138.766 18.6172C138.312 19.0964 138.086 19.7188 138.086 20.4844V25H136.25V16.3594H137.688L137.93 17.8828H138.023C138.31 17.3672 138.682 16.9583 139.141 16.6562C139.604 16.3542 140.102 16.2031 140.633 16.2031Z" fill="#3E4056"/>
<rect opacity="0.01" x="24" y="9" width="20" height="20" fill="#ECF1F8"/>
<mask id="mask0" mask-type="alpha" maskUnits="userSpaceOnUse" x="24" y="9" width="20" height="20">
<rect x="24" y="9" width="20" height="20" fill="white"/>
</mask>
<g mask="url(#mask0)">
<path d="M38.9497 23.9497C36.2161 26.6834 31.7839 26.6834 29.0503 23.9497C26.3166 21.2161 26.3166 16.7839 29.0503 14.0503C31.7839 11.3166 36.2161 11.3166 38.9497 14.0503C41.6834 16.7839 41.6834 21.2161 38.9497 23.9497Z" stroke="#3E4056" stroke-width="2"/>
<path d="M31 22L37 16" stroke="#3E4056" stroke-width="2"/>
<path d="M37 22L31 16" stroke="#3E4056" stroke-width="2"/>
</g>
</svg>
