<svg width="24" height="24" fill="none" xmlns="http://www.w3.org/2000/svg"><path d="M12 15.429a3.429 3.429 0 110-6.858 3.429 3.429 0 010 6.858z" fill="#fff"/><path fill-rule="evenodd" clip-rule="evenodd" d="M24 6.497v11.006A6.504 6.504 0 0117.503 24H6.497A6.504 6.504 0 010 17.503V6.497A6.504 6.504 0 016.497 0h11.006A6.504 6.504 0 0124 6.497zm-12-1.06A6.57 6.57 0 005.438 12 6.57 6.57 0 0012 18.562 6.57 6.57 0 0018.562 12 6.57 6.57 0 0012 5.438zm4.78-.39c0-1.07.87-1.94 1.94-1.94a1.94 1.94 0 011.938 1.94c0 1.069-.87 1.938-1.939 1.938s-1.939-.87-1.939-1.939z" fill="#fff"/></svg>