<svg width="24" height="18" fill="none" xmlns="http://www.w3.org/2000/svg"><path d="M21.857 18c.54 0 1.007-.17 1.404-.506l-6.8-6.49-.47.323c-.509.357-.922.637-1.239.837-.317.2-.739.405-1.266.614-.527.208-1.018.313-1.473.313h-.027c-.455 0-.946-.104-1.473-.313-.527-.21-.949-.414-1.265-.614-.318-.2-.73-.48-1.24-.837-.141-.1-.299-.209-.469-.325l-6.8 6.492c.397.336.864.506 1.404.506h19.714zM1.353 6.916A7.02 7.02 0 010 5.804v9.875l5.993-5.72a464.839 464.839 0 00-4.64-3.043zm21.307 0a396.122 396.122 0 00-4.65 3.045L24 15.679V5.804c-.384.41-.83.78-1.34 1.112z" fill="#fff"/><path d="M21.857 0H2.143C1.455 0 .927.222.556.665.186 1.108 0 1.662 0 2.327c0 .536.246 1.118.737 1.745.49.626 1.013 1.118 1.567 1.476.303.205 1.219.812 2.746 1.822a891.056 891.056 0 013.508 2.333l.2.136.37.254c.29.2.53.362.723.486.192.124.424.262.696.415.273.154.53.269.77.346.242.076.465.115.67.115h.027c.205 0 .428-.039.67-.115a4.15 4.15 0 00.77-.346c.272-.153.504-.292.696-.415.192-.124.433-.286.723-.486a97.188 97.188 0 01.57-.39l1.355-.899 4.912-3.256a6.23 6.23 0 001.634-1.572c.437-.614.656-1.257.656-1.93 0-.563-.212-1.044-.636-1.445A2.12 2.12 0 0021.857 0z" fill="#fff"/></svg>